<svg width="32" height="32" viewBox="0 0 32 32" fill="none" xmlns="http://www.w3.org/2000/svg">
<path fill-rule="evenodd" clip-rule="evenodd" d="M17.3332 14.6667C14.8481 14.6667 12.7599 12.967 12.1679 10.6667H2.6665V8H12.1679C12.7599 5.6997 14.8481 4 17.3332 4C20.2787 4 22.6665 6.38781 22.6665 9.33333C22.6665 12.2789 20.2787 14.6667 17.3332 14.6667ZM25.3332 8H29.3332V10.6667H25.3332V8ZM10.6665 28C8.18138 28 6.09325 26.3003 5.50119 24H2.6665V21.3333H5.50119C6.09325 19.033 8.18138 17.3333 10.6665 17.3333C13.612 17.3333 15.9998 19.7211 15.9998 22.6667C15.9998 25.6122 13.612 28 10.6665 28ZM18.6665 24H29.3332V21.3333H18.6665V24ZM13.3332 22.6667C13.3332 24.1394 12.1393 25.3333 10.6665 25.3333C9.19374 25.3333 7.99984 24.1394 7.99984 22.6667C7.99984 21.1939 9.19374 20 10.6665 20C12.1393 20 13.3332 21.1939 13.3332 22.6667ZM19.9998 9.33333C19.9998 10.8061 18.8059 12 17.3332 12C15.8604 12 14.6665 10.8061 14.6665 9.33333C14.6665 7.86057 15.8604 6.66667 17.3332 6.66667C18.8059 6.66667 19.9998 7.86057 19.9998 9.33333Z" fill="#7D7D7D"/>
</svg>
