<svg width="32" height="32" viewBox="0 0 32 32" fill="none" xmlns="http://www.w3.org/2000/svg">
<path fill-rule="evenodd" clip-rule="evenodd" d="M16.0002 30.6668C7.89999 30.6668 1.3335 24.1003 1.3335 16.0002C1.3335 7.89999 7.89999 1.3335 16.0002 1.3335C24.1003 1.3335 30.6668 7.89999 30.6668 16.0002C30.6668 24.1003 24.1003 30.6668 16.0002 30.6668ZM25.8662 22.833C27.2117 20.8939 28.0002 18.5391 28.0002 16.0002C28.0002 9.37275 22.6276 4.00016 16.0002 4.00016C9.37275 4.00016 4.00016 9.37275 4.00016 16.0002C4.00016 18.5391 4.78867 20.8939 6.13417 22.833C7.63477 20.8509 11.161 20.0002 16.0002 20.0002C20.8394 20.0002 24.3656 20.8509 25.8662 22.833ZM23.9531 24.9865C23.5628 23.5833 20.7593 22.6668 16.0002 22.6668C11.241 22.6668 8.4375 23.5833 8.04726 24.9865C10.1646 26.8617 12.9494 28.0002 16.0002 28.0002C19.0509 28.0002 21.8358 26.8617 23.9531 24.9865ZM16.0002 8.00016C12.7723 8.00016 10.6668 10.3412 10.6668 13.3335C10.6668 17.9033 13.0146 20.0002 16.0002 20.0002C18.9576 20.0002 21.3335 17.973 21.3335 13.6002C21.3335 10.5623 19.2191 8.00016 16.0002 8.00016ZM13.3335 13.3335C13.3335 16.3592 14.4244 17.3335 16.0002 17.3335C17.5704 17.3335 18.6668 16.398 18.6668 13.6002C18.6668 11.9341 17.621 10.6668 16.0002 10.6668C14.3118 10.6668 13.3335 11.7546 13.3335 13.3335Z" fill="#7D7D7D"/>
</svg>
