<svg width="32" height="32" viewBox="0 0 32 32" fill="none" xmlns="http://www.w3.org/2000/svg">
<path fill-rule="evenodd" clip-rule="evenodd" d="M25.3332 13.3335C25.3332 7.92127 22.3487 4.16484 18.487 3.03712C18.3472 2.67531 18.1262 2.33896 17.8258 2.05674C16.7995 1.09242 15.2002 1.09242 14.1739 2.05674C13.8741 2.33834 13.6535 2.67383 13.5136 3.03473C9.64698 4.15753 6.6665 7.90575 6.6665 13.3335C6.6665 16.8454 5.95848 18.8132 4.64778 20.2393C4.42868 20.4777 3.8351 21.0237 3.43292 21.3937L3.43275 21.3938L3.4327 21.3939C3.24242 21.5689 3.09503 21.7045 3.05046 21.7494L2.6665 22.1388V26.6856H10.7838C11.0583 28.1017 11.8266 29.0491 13.2161 29.897C14.9254 30.94 17.0743 30.94 18.7836 29.897C20.0098 29.1487 20.832 27.9986 21.1656 26.6856H29.3332V22.1388L28.9492 21.7494C28.9088 21.7084 28.7674 21.578 28.5825 21.4074C28.1815 21.0376 27.5762 20.4791 27.3537 20.2361C26.0421 18.8034 25.3332 16.833 25.3332 13.3335ZM18.3155 26.6856H13.5713C13.7597 27.036 14.0808 27.3007 14.6052 27.6207C15.4615 28.1432 16.5381 28.1432 17.3945 27.6207C17.791 27.3787 18.1009 27.0585 18.3155 26.6856ZM25.3867 22.0367C25.6673 22.3432 26.2687 22.9034 26.6665 23.2694V24.0189H5.33317V23.27C5.72793 22.9083 6.33108 22.3485 6.61115 22.0438C8.39213 20.106 9.33317 17.4906 9.33317 13.3335C9.33317 8.29336 12.4435 5.35001 15.9998 5.35001C19.5461 5.35001 22.6665 8.30855 22.6665 13.3335C22.6665 17.4772 23.6078 20.0935 25.3867 22.0367Z" fill="#7D7D7D"/>
</svg>
