<svg width="32" height="32" viewBox="0 0 32 32" fill="none" xmlns="http://www.w3.org/2000/svg">
<path fill-rule="evenodd" clip-rule="evenodd" d="M5.33317 24V6.66667H21.3332V24C21.3332 24.4675 21.4134 24.9163 21.5608 25.3333H6.6665C5.93012 25.3333 5.33317 24.7364 5.33317 24ZM25.3332 28H6.6665C4.45736 28 2.6665 26.2091 2.6665 24V4H21.3332H22.6665H23.9998V10.6667H29.3332V12V13.3333V24C29.3332 26.2091 27.5423 28 25.3332 28ZM23.9998 13.3333H26.6665V24C26.6665 24.7364 26.0696 25.3333 25.3332 25.3333C24.5968 25.3333 23.9998 24.7364 23.9998 24V13.3333ZM13.3332 9.33333V14.6667H7.99984V9.33333H13.3332ZM18.6665 13.3333V10.6667H14.6665V13.3333H18.6665ZM18.6665 16V18.6667H7.99984V16H18.6665ZM18.6665 22.6667V20H7.99984V22.6667H18.6665Z" fill="#7D7D7D"/>
</svg>
