<svg width="250" height="33" viewBox="0 0 250 33" fill="none" xmlns="http://www.w3.org/2000/svg">
<g clip-path="url(#clip0_15659_32240)">
<mask id="mask0_15659_32240" style="mask-type:luminance" maskUnits="userSpaceOnUse" x="0" y="0" width="250" height="33">
<path d="M250 0H0V33H250V0Z" fill="white"/>
</mask>
<g mask="url(#mask0_15659_32240)">
<path fill-rule="evenodd" clip-rule="evenodd" d="M22.7272 23.7827C21.3637 24.8069 19.5454 25.3758 17.3863 25.3758C14.5454 25.3758 12.3863 24.5793 11.0227 22.7586C9.54546 21.2793 8.75 19.1173 8.75 16.3862V16.1586C8.75 13.5414 9.65909 11.3793 11.25 9.78621C12.8409 8.3069 15 7.39655 17.3863 7.39655C19.4318 7.39655 21.25 7.96552 22.6137 8.98966C23.8637 10.0138 24.7728 11.6069 25 13.769H20.7954C20.4546 11.7207 19.3182 10.5828 17.1591 10.5828C14.4318 10.5828 12.7272 12.631 12.7272 16.2724V16.5C12.7272 20.1414 14.4318 22.1897 17.2728 22.1897C19.4318 22.1897 20.9091 21.1655 21.25 18.8897H25.1137C25 21.0518 24.0909 22.7586 22.7272 23.7827ZM41.9318 23.2139C40.5682 24.5793 38.5228 25.3758 35.9091 25.3758C33.0682 25.3758 30.9091 24.4655 29.4318 23.1C27.9546 21.6207 27.1591 19.4586 27.1591 16.8414V16.6138C27.1591 13.9966 28.0682 11.8345 29.6591 10.2414C31.1363 8.64828 33.4091 7.73793 35.9091 7.73793C37.8409 7.73793 39.6591 8.1931 41.0228 9.10345C42.5 10.1276 43.4091 11.6069 43.6363 13.769H39.7728C39.4318 11.7207 38.0682 10.8103 36.0228 10.8103C32.9546 10.8103 31.25 13.0862 31.25 16.6138V16.8414C31.25 18.5482 31.5909 19.9138 32.3863 20.9379C33.0682 21.9621 34.3182 22.531 36.0228 22.531C37.5 22.531 38.5228 22.0758 39.2046 21.3931C39.8863 20.7103 40.2272 19.8 40.2272 18.7758H36.3637V15.931H44.0909V17.6379C44.0909 19.9139 43.2954 21.8482 41.9318 23.2139ZM0 33V0H52.7272V33H0ZM3.29546 29.7H49.4318V3.3H3.29546V29.7ZM65.9089 16.6137C65.9089 20.0276 67.4999 21.9621 70.2271 21.9621C72.2725 21.9621 73.6362 20.9379 73.9771 18.7758H77.6134C77.4999 20.8242 76.5908 22.4173 75.3408 23.4413C73.9771 24.4655 72.2725 25.0345 70.2271 25.0345C67.4999 25.0345 65.4544 24.2379 64.0908 22.7586C62.6134 21.2793 61.9317 19.1173 61.9317 16.6137V16.3862C61.9317 13.8827 62.8408 11.7207 64.318 10.2414C65.6817 8.76205 67.8408 7.9655 70.1134 7.9655C72.159 7.9655 73.8634 8.53446 75.2271 9.44481C76.4771 10.4689 77.2725 11.9482 77.4999 13.9965H73.6362C73.409 11.9482 72.2725 10.9241 70.2271 10.9241C67.6134 10.9241 65.9089 12.9724 65.9089 16.3862V16.6137ZM78.6362 24.8069L84.0908 8.30688H88.9771L94.318 24.8069H90.4544L89.318 21.1655H83.2953L82.159 24.8069H78.6362ZM86.3634 11.2655L84.2044 18.4345H88.5225L86.3634 11.2655ZM96.9317 8.30688H102.614C106.591 8.30688 108.863 10.0138 108.977 13.5413V13.6552C108.977 15.3621 108.409 16.6137 107.273 17.5241C106.136 18.3207 104.545 18.7758 102.727 18.7758H100.682V24.8069H96.9317V8.30688ZM102.386 16.1586C104.318 16.1586 105.227 15.3621 105.227 13.6552C105.227 11.8345 104.204 11.1517 102.386 11.1517H100.454V16.1586H102.386ZM115.682 24.8069H111.932V8.30688H115.682V24.8069ZM118.977 8.30688H131.591V11.1517H127.159V24.8069H123.409V11.2655H118.977V8.30688ZM131.25 24.8069L136.704 8.30688H141.591L146.932 24.8069H143.068L141.932 21.1655H135.909L134.772 24.8069H131.25ZM138.863 11.2655L136.704 18.4345H141.022L138.863 11.2655ZM149.432 8.30688H153.182V21.8482H159.887V24.8069H149.432V8.30688ZM179.318 18.6621H175.568H175.454V15.931H182.841V17.7518C182.841 20.0276 182.159 21.8482 180.796 23.1C179.546 24.3518 177.613 25.1482 175.113 25.1482C172.387 25.1482 170.227 24.2379 168.863 22.7586C167.387 21.2793 166.704 19.231 166.704 16.7276V16.5C166.704 13.9965 167.613 11.9482 169.091 10.4689C170.568 8.98964 172.727 8.0793 175.113 8.0793C176.932 8.0793 178.637 8.53446 180 9.44481C181.363 10.3552 182.272 11.8345 182.5 13.8827H178.75C178.409 11.9482 177.272 11.0379 175.227 11.0379C172.387 11.0379 170.682 13.0862 170.682 16.5V16.7276C170.682 18.3207 171.137 19.6861 171.818 20.5965C172.613 21.6207 173.75 22.1897 175.341 22.1897C176.704 22.1897 177.613 21.8482 178.296 21.1655C178.977 20.4827 179.318 19.5724 179.318 18.6621ZM198.296 13.3137C198.296 14.6793 197.841 15.5897 197.272 16.2724C196.704 16.9552 195.796 17.4103 195 17.6379L199.318 24.6931H195.341L191.363 18.3207H189.772V24.6931H186.022V8.19309H191.932C193.863 8.19309 195.454 8.64826 196.591 9.44481C197.727 10.2414 198.296 11.4931 198.296 13.2V13.3137ZM191.704 15.8173C193.637 15.8173 194.546 15.0207 194.546 13.4276C194.546 11.7207 193.637 11.1517 191.704 11.1517H189.659V15.8173H191.704ZM203.068 10.3552C204.546 8.87584 206.591 7.9655 209.091 7.9655C211.591 7.9655 213.75 8.87584 215.113 10.2414C216.591 11.7207 217.5 13.7689 217.5 16.2724V16.5C217.5 19.0034 216.704 21.1655 215.227 22.6448C213.75 24.1242 211.704 25.0345 209.091 25.0345C206.477 25.0345 204.432 24.1242 202.954 22.6448C201.477 21.1655 200.682 19.0034 200.682 16.6137V16.3862C200.682 13.8827 201.477 11.8345 203.068 10.3552ZM212.5 20.5965C213.296 19.6861 213.75 18.3207 213.75 16.6137H213.863V16.2724C213.863 14.6793 213.409 13.3137 212.613 12.4034C211.818 11.4931 210.682 10.9241 209.204 10.9241C207.727 10.9241 206.591 11.4931 205.796 12.4034C205 13.3137 204.546 14.6793 204.546 16.3862V16.6137C204.546 18.3207 205.113 19.6861 205.909 20.5965C206.704 21.5069 207.841 22.0758 209.204 22.0758C210.568 22.0758 211.704 21.5069 212.5 20.5965ZM227.272 22.0758C229.432 22.0758 230.454 21.0518 230.454 17.9793V8.30688H234.204V18.2069C234.204 22.7586 231.818 25.0345 227.272 25.0345C222.841 25.0345 220.454 22.7586 220.454 18.3207V8.30688H224.204V18.0931C224.204 20.9379 225 22.0758 227.272 22.0758ZM237.954 8.30688H243.637C247.613 8.30688 249.887 10.0138 250 13.5413V13.6552C250 15.3621 249.432 16.6137 248.296 17.5241C247.159 18.3207 245.568 18.7758 243.75 18.7758H241.704V24.8069H237.954V8.30688ZM243.409 16.1586C245.341 16.1586 246.25 15.3621 246.25 13.6552C246.25 11.8345 245.341 11.1517 243.409 11.1517H241.477V16.1586H243.409Z" fill="#0062A8"/>
</g>
</g>
<defs>
<clipPath id="clip0_15659_32240">
<rect width="250" height="33" fill="white"/>
</clipPath>
</defs>
</svg>
