<svg width="30" height="30" viewBox="0 0 30 30" fill="none" xmlns="http://www.w3.org/2000/svg">
<path d="M3.75 7.5H26.25V22.5H3.75V7.5ZM2.5 5C1.80965 5 1.25 5.55965 1.25 6.25V23.75C1.25 24.4404 1.80965 25 2.5 25H27.5C28.1904 25 28.75 24.4404 28.75 23.75V6.25C28.75 5.55965 28.1904 5 27.5 5H2.5ZM16.25 10H23.75V12.5H16.25V10ZM22.5 15H16.25V17.5H22.5V15ZM13.125 12.5C13.125 14.2259 11.7259 15.625 10 15.625C8.27411 15.625 6.875 14.2259 6.875 12.5C6.875 10.7741 8.27411 9.375 10 9.375C11.7259 9.375 13.125 10.7741 13.125 12.5ZM10 16.875C7.58375 16.875 5.625 18.8337 5.625 21.25H14.375C14.375 18.8337 12.4163 16.875 10 16.875Z" fill="#939393"/>
</svg>
