<svg width="30" height="30" viewBox="0 0 30 30" fill="none" xmlns="http://www.w3.org/2000/svg">
<path d="M11.25 5L7.5 2.5L3.75 5V23.75C3.75 25.8211 5.42894 27.5 7.5 27.5H25C27.0711 27.5 28.75 25.8211 28.75 23.75V20H26.25V5L22.5 2.5L18.75 5L15 2.5L11.25 5ZM23.75 20H8.75V23.75C8.75 24.4404 8.19035 25 7.5 25C6.80965 25 6.25 24.4404 6.25 23.75V6.33796L7.5 5.50462L11.25 8.00462L15 5.50462L18.75 8.00462L22.5 5.50462L23.75 6.33796V20ZM25 25H11.0366C11.1748 24.609 11.25 24.1882 11.25 23.75V22.5H26.25V23.75C26.25 24.4404 25.6904 25 25 25Z" fill="#939393"/>
</svg>
