<svg width="30" height="30" viewBox="0 0 30 30" fill="none" xmlns="http://www.w3.org/2000/svg">
<path fill-rule="evenodd" clip-rule="evenodd" d="M8.75 13.75V5C8.75 3.61929 9.86929 2.5 11.25 2.5H18.75C20.1307 2.5 21.25 3.61929 21.25 5L21.25 8.75L21.25 13.75H27.5L15 24.4808L2.5 13.75H8.75ZM18.75 5L18.75 8.75L18.75 13.75L18.75 16.25H20.3709L15 21.1881L9.62907 16.25H11.25L11.25 13.75L11.25 8.75L11.25 5H18.75ZM23.75 27.5C25.1307 27.5 26.25 26.3807 26.25 25H3.75C3.75 26.3807 4.86929 27.5 6.25 27.5H23.75Z" fill="#F8F8F8"/>
</svg>
