<svg width="30" height="30" viewBox="0 0 30 30" fill="none" xmlns="http://www.w3.org/2000/svg">
<path fill-rule="evenodd" clip-rule="evenodd" d="M27.5 25V16.25H25V25H5V5H13.75V2.5H5C3.61929 2.5 2.5 3.61929 2.5 5V25C2.5 26.3807 3.61929 27.5 5 27.5H25C26.3807 27.5 27.5 26.3807 27.5 25ZM23.9726 3.40428C23.3997 2.82677 22.6151 2.5 21.7967 2.5C20.9792 2.5 20.1955 2.82604 19.6192 3.40579L9.15812 13.8668C8.22333 14.6904 7.61055 15.916 7.50406 17.2341L7.5 21.2529V22.5029H12.6683C14.0861 22.4057 15.3238 21.7869 16.1969 20.7797L26.5988 10.3823C27.1759 9.8052 27.5001 9.02249 27.5001 8.20635C27.5001 7.39021 27.1759 6.6075 26.5988 6.0304L23.9726 3.40428ZM12.58 20.006C13.2478 19.9588 13.8694 19.648 14.3685 19.077L21.9459 11.4996L18.503 8.05658L10.8701 15.687C10.3637 16.1349 10.0504 16.7615 10 17.3348V20.0037L12.58 20.006ZM20.2711 6.2891L23.7136 9.73188L24.831 8.61453C24.9392 8.50627 25.0001 8.35945 25.0001 8.20635C25.0001 8.05325 24.9392 7.90643 24.831 7.79817L22.2014 5.16857C22.0944 5.06068 21.9487 5 21.7967 5C21.6447 5 21.499 5.06068 21.392 5.16857L20.2711 6.2891Z" fill="#005DAD" fill-opacity="0.45"/>
</svg>
